<svg width="22" height="22" viewBox="0 0 22 22" fill="none" xmlns="http://www.w3.org/2000/svg">
<path d="M11.9847 19.044L15.4847 20.882C15.8368 21.0662 16.2334 21.1484 16.6298 21.119C17.0261 21.0897 17.4064 20.9502 17.7276 20.7162C18.0488 20.4821 18.2981 20.1629 18.4474 19.7946C18.5968 19.4264 18.6402 19.0236 18.5727 18.632L17.9057 14.739C17.847 14.3983 17.8721 14.0485 17.9789 13.7197C18.0857 13.391 18.271 13.0931 18.5187 12.852L21.3467 10.095C21.6315 9.81746 21.8329 9.46577 21.9282 9.0797C22.0236 8.69364 22.009 8.2886 21.8861 7.9104C21.7632 7.5322 21.537 7.19593 21.2329 6.93961C20.9289 6.6833 20.5592 6.51716 20.1657 6.46L16.2567 5.892C15.9156 5.84145 15.5919 5.70895 15.3132 5.50588C15.0346 5.30281 14.8093 5.03521 14.6567 4.726L12.9037 1.188C12.7277 0.831405 12.4555 0.531155 12.1178 0.321209C11.7801 0.111264 11.3903 0 10.9927 0C10.595 0 10.2053 0.111264 9.8676 0.321209C9.52989 0.531155 9.25766 0.831405 9.08169 1.188L7.33369 4.732C7.1811 5.04121 6.95582 5.30881 6.67716 5.51188C6.3985 5.71495 6.07477 5.84745 5.73369 5.898L1.82469 6.466C1.43116 6.52316 1.06147 6.6893 0.757441 6.94561C0.453409 7.20193 0.227161 7.5382 0.104285 7.9164C-0.0185908 8.2946 -0.0331923 8.69964 0.0621321 9.0857C0.157457 9.47177 0.358904 9.82346 0.64369 10.101L3.47169 12.858C3.71939 13.0991 3.90464 13.397 4.01144 13.7257C4.11825 14.0545 4.14339 14.4043 4.08469 14.745L3.41269 18.632C3.34467 19.0242 3.38785 19.4276 3.53734 19.7965C3.68683 20.1654 3.93664 20.485 4.25849 20.7192C4.58033 20.9534 4.96134 21.0928 5.35833 21.1216C5.75533 21.1504 6.15244 21.0674 6.50469 20.882L10.0047 19.044C10.3102 18.8841 10.6499 18.8006 10.9947 18.8006C11.3395 18.8006 11.6792 18.8841 11.9847 19.044Z" fill="#121212"/>
</svg>
